<svg width="265" height="150" viewBox="0 0 265 150" fill="none" xmlns="http://www.w3.org/2000/svg">
<rect width="265" height="150" fill="#E5E5E5"/>
<rect width="1440" height="4373" transform="translate(-148 -1340)" fill="white"/>
<rect width="1440" height="370" transform="translate(-148 -135)" fill="white"/>
<g clip-path="url(#clip0_628_22200)">
<rect width="1440" height="368" transform="translate(-148 -135)" fill="#F7F8F9"/>
<g opacity="0.4">
<rect width="1440" height="1320" transform="translate(-148 -655)" fill="white"/>
<line x1="1316" y1="17.5" x2="-172" y2="17.5" stroke="#EEF0F3"/>
<line x1="1316" y1="41.5" x2="-172" y2="41.5" stroke="#EEF0F3"/>
<line x1="1316" y1="65.5" x2="-172" y2="65.5" stroke="#EEF0F3"/>
<line x1="1316" y1="89.5" x2="-172" y2="89.5" stroke="#EEF0F3"/>
<line x1="1316" y1="113.5" x2="-172" y2="113.5" stroke="#EEF0F3"/>
<line x1="1316" y1="137.5" x2="-172" y2="137.5" stroke="#EEF0F3"/>
<line x1="20.5" y1="-7" x2="20.5" y2="713" stroke="#EEF0F3"/>
<line x1="44.5" y1="-7" x2="44.5" y2="713" stroke="#EEF0F3"/>
<line x1="68.5" y1="-7" x2="68.5" y2="713" stroke="#EEF0F3"/>
<line x1="92.5" y1="-7" x2="92.5" y2="713" stroke="#EEF0F3"/>
<line x1="116.5" y1="-7" x2="116.5" y2="713" stroke="#EEF0F3"/>
<line x1="140.5" y1="-7" x2="140.5" y2="713" stroke="#EEF0F3"/>
<line x1="164.5" y1="-7" x2="164.5" y2="713" stroke="#EEF0F3"/>
<line x1="188.5" y1="-7" x2="188.5" y2="713" stroke="#EEF0F3"/>
<line x1="212.5" y1="-7" x2="212.5" y2="713" stroke="#EEF0F3"/>
<line x1="236.5" y1="-7" x2="236.5" y2="713" stroke="#EEF0F3"/>
<line x1="260.5" y1="-7" x2="260.5" y2="713" stroke="#EEF0F3"/>
<line x1="20.5" y1="-703" x2="20.5" y2="17" stroke="#EEF0F3"/>
<line x1="44.5" y1="-703" x2="44.5" y2="17" stroke="#EEF0F3"/>
<line x1="68.5" y1="-703" x2="68.5" y2="17" stroke="#EEF0F3"/>
<line x1="92.5" y1="-703" x2="92.5" y2="17" stroke="#EEF0F3"/>
<line x1="116.5" y1="-703" x2="116.5" y2="17" stroke="#EEF0F3"/>
<line x1="140.5" y1="-703" x2="140.5" y2="17" stroke="#EEF0F3"/>
<line x1="164.5" y1="-703" x2="164.5" y2="17" stroke="#EEF0F3"/>
<line x1="188.5" y1="-703" x2="188.5" y2="17" stroke="#EEF0F3"/>
<line x1="212.5" y1="-703" x2="212.5" y2="17" stroke="#EEF0F3"/>
<line x1="236.5" y1="-703" x2="236.5" y2="17" stroke="#EEF0F3"/>
<line x1="260.5" y1="-703" x2="260.5" y2="17" stroke="#EEF0F3"/>
</g>
<rect x="-148" y="-135" width="1440" height="368" fill="url(#paint0_radial_628_22200)"/>
</g>
<g filter="url(#filter0_d_628_22200)">
<rect x="2" y="1" width="261" height="146" rx="6" fill="#F7F8F9"/>
</g>
<path d="M116.055 79.1709C116.055 81.4516 115.519 83.1272 114.449 84.1978C113.378 85.2683 111.726 85.8036 109.492 85.8036C107.281 85.8036 104.93 85.6872 102.44 85.4545V80.7418C104.255 80.8581 106.117 80.9163 108.026 80.9163C108.561 80.9163 108.98 80.765 109.282 80.4625C109.608 80.1367 109.771 79.7061 109.771 79.1709V65.9054H105.233V61.0181H116.055V79.1709Z" fill="#110F14"/>
<path d="M131.762 85.4545H119.195V80.5672H122.337V65.9054H119.195V61.0181H131.762V65.9054H128.621V80.5672H131.762V85.4545Z" fill="#110F14"/>
<path d="M155.847 84.9309C150.401 85.5127 145.398 85.8036 140.836 85.8036C138.555 85.8036 136.88 85.2683 135.809 84.1978C134.739 83.1272 134.203 81.4516 134.203 79.1709V67.9999C134.203 65.5563 134.75 63.7876 135.844 62.6938C136.961 61.5767 138.742 61.0181 141.185 61.0181H153.752V65.9054H142.582C141.185 65.9054 140.487 66.6036 140.487 67.9999V79.1709C140.487 79.7061 140.638 80.1367 140.941 80.4625C141.267 80.765 141.697 80.9163 142.232 80.9163C144.909 80.9163 147.352 80.8581 149.563 80.7418V75.6799H145.025V71.4909H155.847V84.9309Z" fill="#110F14"/>
<path d="M180.29 84.9309C174.844 85.5127 169.841 85.8036 165.279 85.8036C162.999 85.8036 161.323 85.2683 160.252 84.1978C159.182 83.1272 158.647 81.4516 158.647 79.1709V67.9999C158.647 65.5563 159.193 63.7876 160.287 62.6938C161.404 61.5767 163.185 61.0181 165.628 61.0181H178.196V65.9054H167.025C165.628 65.9054 164.93 66.6036 164.93 67.9999V79.1709C164.93 79.7061 165.081 80.1367 165.384 80.4625C165.71 80.765 166.14 80.9163 166.676 80.9163C169.352 80.9163 171.796 80.8581 174.007 80.7418V75.6799H169.468V71.4909H180.29V84.9309Z" fill="#110F14"/>
<path d="M190.072 80.5672H202.813V85.4545H183.788V61.0181H190.072V80.5672Z" fill="#110F14"/>
<path d="M224.64 85.4545H205.265V61.0181H224.64V65.9054H211.549V70.6181H221.847V75.5054H211.549V80.5672H224.64V85.4545Z" fill="#110F14"/>
<g clip-path="url(#clip1_628_22200)">
<path fill-rule="evenodd" clip-rule="evenodd" d="M43.6561 58.3301C44.3647 58.3332 45.0434 58.6161 45.5445 59.1172C46.0456 59.6183 46.3285 60.297 46.3316 61.0057C46.3504 61.7005 46.6396 62.3605 47.1377 62.8453C47.6357 63.3301 48.3033 63.6014 48.9984 63.6014C49.6934 63.6014 50.361 63.3301 50.8591 62.8453C51.3572 62.3605 51.6464 61.7005 51.6652 61.0057V52.6755C51.6682 51.9669 51.9511 51.2881 52.4521 50.787C52.9532 50.2859 53.632 50.0031 54.3407 50C55.0466 50.0067 55.7214 50.2912 56.219 50.792C56.7165 51.2929 56.9966 51.9696 56.9987 52.6755V70.1647C56.989 70.521 57.0509 70.8756 57.1806 71.2076C57.3103 71.5395 57.5052 71.8421 57.7538 72.0975C58.0024 72.3529 58.2996 72.5559 58.6279 72.6945C58.9563 72.8331 59.309 72.9045 59.6654 72.9045C60.0218 72.9045 60.3746 72.8331 60.703 72.6945C61.0313 72.5559 61.3286 72.3529 61.5772 72.0975C61.8258 71.8421 62.0206 71.5395 62.1503 71.2076C62.28 70.8756 62.3419 70.521 62.3322 70.1647V61.0057C62.3353 60.297 62.6182 59.6183 63.1193 59.1172C63.6204 58.6161 64.2991 58.3332 65.0078 58.3301C65.7137 58.3368 66.3885 58.6214 66.886 59.1222C67.3836 59.623 67.6638 60.2997 67.6658 61.0057V70.1647C67.6658 70.8718 67.9467 71.5498 68.4466 72.0498C68.9466 72.5497 69.6245 72.8305 70.3316 72.8305C71.0386 72.8305 71.7167 72.5497 72.2166 72.0498C72.7165 71.5498 72.9974 70.8718 72.9974 70.1647V52.6755C73.0005 51.9665 73.2836 51.2875 73.7851 50.7863C74.2867 50.2852 74.9658 50.0026 75.6748 50C76.3815 50.0036 77.058 50.2873 77.5559 50.7888C78.0538 51.2903 78.3325 51.9688 78.331 52.6755V61.0057C78.3497 61.7005 78.6389 62.3605 79.137 62.8453C79.635 63.3301 80.3026 63.6014 80.9977 63.6014C81.6927 63.6014 82.3604 63.3301 82.8585 62.8453C83.3565 62.3605 83.6457 61.7005 83.6645 61.0057C83.6675 60.2967 83.9507 59.6176 84.4522 59.1165C84.9537 58.6153 85.633 58.3327 86.342 58.3301C87.0487 58.3337 87.7251 58.6174 88.223 59.1189C88.7209 59.6205 88.9996 60.299 88.998 61.0057V87.0138C88.9955 87.7174 88.7148 88.3915 88.2172 88.8891C87.7197 89.3866 87.0456 89.6673 86.342 89.6699C85.636 89.6684 84.9591 89.3887 84.4579 88.8915C83.9567 88.3944 83.6716 87.7197 83.6645 87.0138C83.6741 86.6575 83.6123 86.3029 83.4826 85.971C83.3529 85.639 83.158 85.3364 82.9094 85.081C82.6608 84.8256 82.3635 84.6226 82.0352 84.484C81.7069 84.3454 81.3541 84.274 80.9977 84.274C80.6413 84.274 80.2886 84.3454 79.9602 84.484C79.6319 84.6226 79.3346 84.8256 79.086 85.081C78.8374 85.3364 78.6425 85.639 78.5128 85.971C78.3831 86.3029 78.3214 86.6575 78.331 87.0138V95.3342C78.3315 95.6832 78.2631 96.0289 78.1298 96.3515C77.9966 96.6741 77.801 96.9673 77.5543 97.2141C77.3075 97.461 77.0145 97.6569 76.692 97.7904C76.3695 97.9239 76.0239 97.9925 75.6748 97.9922C74.9679 97.9933 74.2895 97.7141 73.788 97.2159C73.2865 96.7177 73.0029 96.0411 72.9993 95.3342V77.8216C72.9993 77.1146 72.7185 76.4366 72.2186 75.9366C71.7186 75.4367 71.0406 75.1558 70.3336 75.1558C69.6265 75.1558 68.9485 75.4367 68.4485 75.9366C67.9486 76.4366 67.6677 77.1146 67.6677 77.8216V87.0002C67.6616 87.703 67.3796 88.3754 66.8823 88.8722C66.3851 89.3691 65.7126 89.6506 65.0098 89.6562C64.3041 89.6542 63.6277 89.3743 63.1269 88.8772C62.6261 88.3801 62.3414 87.7057 62.3342 87.0002V77.8216C62.3155 77.1268 62.0262 76.4668 61.5281 75.982C61.0301 75.4972 60.3625 75.2259 59.6674 75.2259C58.9724 75.2259 58.3047 75.4972 57.8066 75.982C57.3086 76.4668 57.0194 77.1268 57.0006 77.8216V95.3342C56.9986 96.0385 56.7179 96.7134 56.2198 97.2114C55.7218 97.7095 55.0469 97.9902 54.3426 97.9922C53.6356 97.9938 52.9568 97.7148 52.4552 97.2165C51.9536 96.7182 51.6702 96.0412 51.6671 95.3342V87.006C51.6767 86.6497 51.6148 86.2952 51.4851 85.9632C51.3554 85.6312 51.1606 85.3286 50.912 85.0732C50.6634 84.8178 50.3661 84.6148 50.0378 84.4762C49.7095 84.3376 49.3567 84.2662 49.0003 84.2662C48.6439 84.2662 48.2911 84.3376 47.9627 84.4762C47.6344 84.6148 47.3372 84.8178 47.0886 85.0732C46.8401 85.3286 46.6451 85.6312 46.5154 85.9632C46.3857 86.2952 46.3239 86.6497 46.3335 87.006C46.3263 87.7116 46.0416 88.3859 45.5408 88.8831C45.04 89.3802 44.3636 89.6601 43.658 89.6621C42.9551 89.6565 42.2826 89.3749 41.7854 88.8781C41.2882 88.3812 41.0061 87.7089 41 87.006V61.0057C41.002 60.2997 41.2821 59.623 41.7797 59.1222C42.2772 58.6214 42.952 58.3368 43.658 58.3301H43.6561ZM51.6652 68.6762C51.6748 68.3199 51.6129 67.9653 51.4832 67.6334C51.3535 67.3014 51.1586 66.9988 50.91 66.7434C50.6614 66.488 50.3642 66.285 50.0359 66.1464C49.7076 66.0078 49.3548 65.9364 48.9984 65.9364C48.642 65.9364 48.2892 66.0078 47.9608 66.1464C47.6325 66.285 47.3352 66.488 47.0866 66.7434C46.8381 66.9988 46.6432 67.3014 46.5135 67.6334C46.3838 67.9653 46.322 68.3199 46.3316 68.6762V79.3433C46.3504 80.0381 46.6396 80.6981 47.1377 81.1829C47.6357 81.6677 48.3033 81.939 48.9984 81.939C49.6934 81.939 50.361 81.6677 50.8591 81.1829C51.3572 80.6981 51.6464 80.0381 51.6652 79.3433V68.6762ZM78.3232 79.3433V68.6762C78.3136 68.3199 78.3753 67.9653 78.505 67.6334C78.6347 67.3014 78.8297 66.9988 79.0782 66.7434C79.3268 66.488 79.6241 66.285 79.9524 66.1464C80.2808 66.0078 80.6336 65.9364 80.99 65.9364C81.3464 65.9364 81.6991 66.0078 82.0274 66.1464C82.3557 66.285 82.653 66.488 82.9016 66.7434C83.1502 66.9988 83.3451 67.3014 83.4748 67.6334C83.6045 67.9653 83.6663 68.3199 83.6567 68.6762V79.3433C83.6379 80.0381 83.3488 80.6981 82.8507 81.1829C82.3526 81.6677 81.685 81.939 80.99 81.939C80.2949 81.939 79.6272 81.6677 79.1292 81.1829C78.6311 80.6981 78.342 80.0381 78.3232 79.3433Z" fill="#E15539"/>
</g>
<defs>
<filter id="filter0_d_628_22200" x="0" y="0" width="265" height="150" filterUnits="userSpaceOnUse" color-interpolation-filters="sRGB">
<feFlood flood-opacity="0" result="BackgroundImageFix"/>
<feColorMatrix in="SourceAlpha" type="matrix" values="0 0 0 0 0 0 0 0 0 0 0 0 0 0 0 0 0 0 127 0" result="hardAlpha"/>
<feOffset dy="1"/>
<feGaussianBlur stdDeviation="1"/>
<feColorMatrix type="matrix" values="0 0 0 0 0.333333 0 0 0 0 0.411765 0 0 0 0 0.529412 0 0 0 0.1 0"/>
<feBlend mode="normal" in2="BackgroundImageFix" result="effect1_dropShadow_628_22200"/>
<feBlend mode="normal" in="SourceGraphic" in2="effect1_dropShadow_628_22200" result="shape"/>
</filter>
<radialGradient id="paint0_radial_628_22200" cx="0" cy="0" r="1" gradientUnits="userSpaceOnUse" gradientTransform="translate(572 49) rotate(90) scale(184 720)">
<stop stop-color="white" stop-opacity="0"/>
<stop offset="1" stop-color="white"/>
</radialGradient>
<clipPath id="clip0_628_22200">
<rect width="1440" height="368" fill="white" transform="translate(-148 -135)"/>
</clipPath>
<clipPath id="clip1_628_22200">
<rect width="48" height="48" fill="white" transform="translate(41 50)"/>
</clipPath>
</defs>
</svg>
