<svg width="265" height="150" viewBox="0 0 265 150" fill="none" xmlns="http://www.w3.org/2000/svg">
<rect width="265" height="150" fill="#E5E5E5"/>
<rect width="1440" height="4373" transform="translate(-734 -1340)" fill="white"/>
<rect width="1440" height="370" transform="translate(-734 -135)" fill="white"/>
<g clip-path="url(#clip0_628_22200)">
<rect width="1440" height="368" transform="translate(-734 -135)" fill="#F7F8F9"/>
<g opacity="0.4">
<rect width="1440" height="1320" transform="translate(-734 -655)" fill="white"/>
<line x1="730" y1="17.5" x2="-758" y2="17.5" stroke="#EEF0F3"/>
<line x1="730" y1="41.5" x2="-758" y2="41.5" stroke="#EEF0F3"/>
<line x1="730" y1="65.5" x2="-758" y2="65.5" stroke="#EEF0F3"/>
<line x1="730" y1="89.5" x2="-758" y2="89.5" stroke="#EEF0F3"/>
<line x1="730" y1="113.5" x2="-758" y2="113.5" stroke="#EEF0F3"/>
<line x1="730" y1="137.5" x2="-758" y2="137.5" stroke="#EEF0F3"/>
<line x1="10.5" y1="-7" x2="10.5" y2="713" stroke="#EEF0F3"/>
<line x1="34.5" y1="-7" x2="34.5" y2="713" stroke="#EEF0F3"/>
<line x1="58.5" y1="-7" x2="58.5" y2="713" stroke="#EEF0F3"/>
<line x1="82.5" y1="-7" x2="82.5" y2="713" stroke="#EEF0F3"/>
<line x1="106.5" y1="-7" x2="106.5" y2="713" stroke="#EEF0F3"/>
<line x1="130.5" y1="-7" x2="130.5" y2="713" stroke="#EEF0F3"/>
<line x1="154.5" y1="-7" x2="154.5" y2="713" stroke="#EEF0F3"/>
<line x1="178.5" y1="-7" x2="178.5" y2="713" stroke="#EEF0F3"/>
<line x1="202.5" y1="-7" x2="202.5" y2="713" stroke="#EEF0F3"/>
<line x1="226.5" y1="-7" x2="226.5" y2="713" stroke="#EEF0F3"/>
<line x1="250.5" y1="-7" x2="250.5" y2="713" stroke="#EEF0F3"/>
<line x1="10.5" y1="-703" x2="10.5" y2="17" stroke="#EEF0F3"/>
<line x1="34.5" y1="-703" x2="34.5" y2="17" stroke="#EEF0F3"/>
<line x1="58.5" y1="-703" x2="58.5" y2="17" stroke="#EEF0F3"/>
<line x1="82.5" y1="-703" x2="82.5" y2="17" stroke="#EEF0F3"/>
<line x1="106.5" y1="-703" x2="106.5" y2="17" stroke="#EEF0F3"/>
<line x1="130.5" y1="-703" x2="130.5" y2="17" stroke="#EEF0F3"/>
<line x1="154.5" y1="-703" x2="154.5" y2="17" stroke="#EEF0F3"/>
<line x1="178.5" y1="-703" x2="178.5" y2="17" stroke="#EEF0F3"/>
<line x1="202.5" y1="-703" x2="202.5" y2="17" stroke="#EEF0F3"/>
<line x1="226.5" y1="-703" x2="226.5" y2="17" stroke="#EEF0F3"/>
<line x1="250.5" y1="-703" x2="250.5" y2="17" stroke="#EEF0F3"/>
</g>
<rect x="-734" y="-135" width="1440" height="368" fill="url(#paint0_radial_628_22200)"/>
</g>
<g filter="url(#filter0_d_628_22200)">
<rect x="2" y="1" width="261" height="146" rx="6" fill="#F7F8F9"/>
</g>
<g clip-path="url(#clip1_628_22200)">
<path d="M84.4587 54.5161C84.7132 54.6057 84.9348 54.7696 85.0951 54.9866C85.2554 55.2035 85.3469 55.4636 85.3577 55.7331C85.4959 57.1725 85.5549 58.6183 85.5342 60.0641C85.519 60.7274 85.5038 61.3907 85.4597 62.0539C85.2102 61.9505 84.9744 61.847 84.7234 61.7497C84.0906 61.5002 83.4714 61.2644 82.8371 61.0423C82.8523 60.7046 82.8675 60.3806 82.8675 60.0413C82.8812 58.9658 82.8523 57.8751 82.764 56.7706C81.7326 56.4466 80.6571 56.1515 79.5694 55.8868C78.2003 55.5628 76.8312 55.2966 75.4438 55.1049C74.6634 55.003 73.9119 54.9132 73.1908 54.8402C72.4697 54.7672 71.7015 54.723 70.9211 54.688C70.3126 54.6728 69.7421 54.6591 69.1245 54.6591L68.2255 54.6728C67.9593 54.6728 67.6504 54.688 67.3264 54.688C66.546 54.7185 65.7945 54.7763 65.0567 54.8402C64.3189 54.9041 63.5841 55.003 62.8037 55.1049C61.4346 55.2966 60.0487 55.5612 58.6781 55.8868C57.5873 56.1515 56.527 56.4466 55.4835 56.7706C55.304 59.1923 55.3682 61.6258 55.6752 64.0346C55.8381 65.3821 56.0742 66.7197 56.3825 68.0416C56.559 68.7931 56.7659 69.5446 56.991 70.2656L57.0063 70.325L57.0199 70.3843L57.0352 70.4436L57.0641 70.5014L57.0793 70.5608L57.0944 70.6201L57.1097 70.6794L57.1675 70.8407V70.8559L57.1827 70.9137L57.2862 71.1936L57.2998 71.2529L57.3896 71.4887L57.4033 71.5329C57.8583 72.8521 58.385 74.1456 58.9808 75.4075L59.0097 75.4516L59.025 75.4972L59.0386 75.5261L59.069 75.5703L59.0828 75.6144L59.098 75.6585L59.1269 75.6874C59.349 76.1437 59.5833 76.6001 59.8206 77.0565C59.997 77.3516 60.1582 77.665 60.321 77.9404C60.5127 78.2801 60.6897 78.5747 60.852 78.8242C61.3524 79.635 61.8818 80.4306 62.4432 81.1974C63.0045 81.9641 63.5765 82.7003 64.2109 83.4366C64.4472 83.7165 64.7124 84.0111 65.0065 84.3205C65.2864 84.6247 65.5511 84.929 65.8021 85.1891C66.4502 85.8524 67.1271 86.4867 67.8056 87.1044L68.0855 87.3402C67.8938 87.4923 67.7022 87.6444 67.4968 87.7965C66.9659 88.1936 66.4213 88.5769 65.8751 88.9603C62.9315 86.3214 60.399 83.2572 58.3617 79.8693V79.8541L58.3464 79.8404L58.3313 79.8252C58.2141 79.6335 58.1106 79.4418 58.0072 79.2806C57.8307 78.9565 57.639 78.631 57.4778 78.3222C56.991 77.4383 56.5484 76.5256 56.1224 75.5672C55.6965 74.6088 55.3268 73.6672 54.9876 72.724C54.5137 71.3907 54.1104 70.0334 53.7796 68.6577C52.7788 64.425 52.4802 60.0566 52.8958 55.7271C52.9083 55.4571 53.0021 55.1973 53.165 54.9817C53.328 54.7661 53.5523 54.6049 53.8086 54.5192C55.2081 54.0476 56.6381 53.6353 58.0818 53.2809C59.4965 52.9569 60.9539 52.6724 62.4432 52.4564C63.2038 52.3529 64.004 52.2647 64.8438 52.1917C65.6546 52.1171 66.4502 52.0593 67.2306 52.0289C67.5257 52.0289 67.839 52.0137 68.1737 52.0137L69.1321 52L70.089 52.0137C70.4283 52.0137 70.7522 52.0289 71.0321 52.0289C71.8278 52.0593 72.6234 52.1171 73.4342 52.1917C74.2739 52.2647 75.0695 52.3529 75.821 52.4564C77.3225 52.677 78.7814 52.9569 80.1962 53.2809C81.6262 53.6353 83.0546 54.0415 84.4694 54.5192L84.4587 54.5161ZM75.8241 81.1989C76.355 80.4474 76.8889 79.6776 77.3712 78.885C77.5376 78.5862 77.8107 78.361 78.1357 78.2544C78.4608 78.1478 78.8141 78.1677 79.1252 78.31C81.6854 79.5337 84.0095 81.1997 85.9906 83.2313C86.2224 83.4449 86.3715 83.7334 86.4118 84.0461C86.4522 84.3587 86.3812 84.6756 86.2112 84.9411C85.799 85.5892 85.3426 86.2661 84.8862 86.9294C84.4298 87.5927 83.9278 88.2407 83.4425 88.8599C83.0881 89.3163 82.7047 89.7878 82.2924 90.2594C81.9395 90.6717 81.541 91.1281 81.0998 91.6149C80.4807 92.2933 79.8828 92.911 79.2743 93.5149H79.2591C78.6704 94.1052 78.0421 94.6802 77.388 95.2537C77.195 95.4417 76.9501 95.5675 76.6849 95.615C76.4197 95.6624 76.1463 95.6293 75.9001 95.5199C73.9609 94.6297 72.0938 93.5901 70.3156 92.4105C70.5514 92.234 70.7872 92.0576 71.023 91.8659C71.5235 91.4673 72.0255 91.0703 72.4956 90.6489C73.6972 91.4126 74.9421 92.106 76.2242 92.7254C76.6212 92.3572 77.0046 91.9891 77.4031 91.6057C78.0208 90.9972 78.5958 90.4131 79.1267 89.8228C79.4796 89.4547 79.8478 89.0135 80.2616 88.5419C80.6145 88.1145 80.9827 87.6718 81.3371 87.2017C81.8224 86.6115 82.265 86.0075 82.6925 85.3884C82.9283 85.0841 83.1489 84.7403 83.3695 84.4163C82.7064 83.7805 81.997 83.1948 81.2473 82.6638C80.5372 82.1489 79.7944 81.6809 79.0233 81.2628C78.6841 81.7785 78.3311 82.2805 77.9766 82.7658C77.359 83.6207 76.7247 84.4163 76.0766 85.183C75.7815 85.5207 75.5016 85.8311 75.2369 86.1262C75.1182 86.2783 74.9859 86.4061 74.8535 86.5521L74.8383 86.5674L74.8247 86.5826L74.8094 86.5963L74.7942 86.6115L74.7805 86.6267L74.7653 86.6419L74.7501 86.6556L74.7212 86.686V86.6997C73.3144 88.1815 71.8029 89.5602 70.1985 90.8253C67.774 92.687 65.1438 94.2642 62.3595 95.526C62.1065 95.6395 61.8245 95.6721 61.5522 95.6193C61.2799 95.5664 61.0306 95.4308 60.8383 95.2309C60.1887 94.6711 59.5848 94.096 58.9808 93.521C58.3723 92.9323 57.773 92.304 57.1553 91.6209C56.699 91.1341 56.3019 90.6778 55.9474 90.2655C55.5504 89.7939 55.167 89.3223 54.7989 88.866C54.3121 88.2331 53.8405 87.5988 53.3689 86.9355C52.8973 86.2722 52.4562 85.5953 52.0439 84.9472C51.7184 84.4315 51.3806 83.8823 51.0414 83.3119C50.7371 82.7521 50.4222 82.1922 50.1286 81.6385C49.7468 80.9311 49.3924 80.2085 49.0531 79.4875C48.7139 78.7664 48.4203 78.0423 48.1115 77.2908C47.5517 75.9217 47.0649 74.5221 46.6374 73.0921C46.2099 71.6622 45.857 70.22 45.5725 68.7611C45.5172 68.4924 45.547 68.2131 45.658 67.9622C45.769 67.7113 45.9556 67.5013 46.1917 67.3616C47.907 66.1423 49.7146 65.0585 51.5982 64.1198C51.6712 64.8272 51.7609 65.5194 51.8781 66.2115C51.907 66.4473 51.9511 66.6831 51.9952 66.9189C50.7448 67.5729 49.5347 68.3014 48.3716 69.1004C48.6074 70.2048 48.8873 71.2803 49.1961 72.3269C49.5947 73.6824 50.0663 75.0074 50.582 76.2822C50.8619 76.9744 51.1555 77.6665 51.4796 78.3587C51.8036 79.0509 52.1291 79.7278 52.482 80.3774C52.7619 80.9235 53.0571 81.4423 53.3522 81.9686C53.6458 82.4554 53.9607 82.9711 54.2939 83.5157C54.7076 84.1638 55.1199 84.7981 55.5473 85.3869C55.9748 85.9756 56.4312 86.6039 56.9028 87.2002C57.2709 87.6703 57.6239 88.1129 57.992 88.5404C58.3906 89.012 58.7739 89.4532 59.1117 89.8213C59.6578 90.4116 60.2313 91.0003 60.8505 91.6042C61.2338 91.9876 61.6324 92.3557 62.0142 92.7102C64.2311 91.6438 66.334 90.3553 68.2909 88.8644C71.1588 86.6896 73.695 84.1089 75.8196 81.2034L75.8241 81.1989ZM92.0467 67.3555C92.282 67.4968 92.4686 67.7064 92.5817 67.9564C92.6947 68.2065 92.7289 68.4851 92.6796 68.755C92.3845 70.2139 92.0315 71.6576 91.604 73.086C91.1765 74.5145 90.6913 75.9156 90.1452 77.2847C90.0898 77.4213 90.0098 77.5466 89.9093 77.6544C89.6782 77.9223 89.3509 78.0886 88.9981 78.117C88.6454 78.1455 88.2957 78.0339 88.0245 77.8065C87.029 76.9399 85.9754 76.1424 84.871 75.4196C83.7858 74.7098 82.6534 74.075 81.4816 73.5196C81.1743 73.381 80.9299 73.1324 80.7964 72.8228C80.663 72.5132 80.6503 72.1648 80.7606 71.8462C81.2013 70.6064 81.57 69.3422 81.865 68.0598C81.9973 67.5593 82.1008 67.0573 82.2042 66.5386C82.5434 66.6709 82.8675 66.8048 83.2068 66.9508C83.7072 67.1729 84.2077 67.4072 84.7082 67.6445C84.6352 67.9975 84.5561 68.3367 84.4724 68.6759C84.2381 69.6632 83.9719 70.6536 83.6631 71.6226C84.5759 72.0942 85.4749 72.6236 86.3435 73.1834C87.0068 73.6261 87.6701 74.0961 88.3044 74.5829C88.5691 73.8467 88.8201 73.0952 89.0407 72.33C89.3647 71.2834 89.6294 70.2002 89.8804 69.1034C87.947 67.7814 85.8892 66.6513 83.7361 65.7293C82.41 65.1562 81.0524 64.6589 79.6698 64.24C78.4065 63.8584 77.1225 63.5486 75.8241 63.312C74.9113 63.1508 73.9682 63.0184 73.0098 62.915C72.0514 62.8115 71.1097 62.7522 70.1666 62.7233L69.6372 62.7081H68.6058L68.0901 62.7233C67.1469 62.7522 66.1885 62.8115 65.2453 62.915C64.3021 63.0184 63.3453 63.1508 62.4173 63.312C61.1349 63.5478 59.854 63.8718 58.5716 64.24C58.0848 64.3921 57.5995 64.5442 57.1127 64.7116C57.0686 64.4317 57.0245 64.167 56.9956 63.887C56.9073 63.2542 56.8435 62.6351 56.8039 62.0007C60.779 60.6864 64.9393 60.0187 69.1261 60.0231C74.3048 60.0302 79.4331 61.0407 84.2275 62.9986C86.9925 64.1508 89.6173 65.614 92.0512 67.3601L92.0467 67.3555ZM67.4998 79.0098C67.2793 78.7299 67.0876 78.4789 66.9111 78.2583C65.5092 76.339 64.3188 74.2738 63.3605 72.0988C63.2282 71.8051 63.0943 71.51 62.9772 71.2149C62.86 70.9198 62.7703 70.6703 62.6729 70.3904C62.6308 70.2931 62.6011 70.1909 62.5847 70.0861C62.5533 69.9129 62.5567 69.7351 62.5947 69.5632C62.6327 69.3912 62.7046 69.2286 62.8061 69.0848C62.9076 68.9409 63.0368 68.8187 63.1861 68.7252C63.3353 68.6318 63.5016 68.569 63.6754 68.5405C63.9553 68.4812 64.2839 68.4371 64.6185 68.3884L65.5754 68.2545C66.1657 68.1967 66.7544 68.1526 67.3583 68.1024C67.9623 68.0522 68.5753 68.0583 69.1275 68.0583C69.6798 68.0583 70.2761 68.072 70.9089 68.1024C71.5174 68.1465 72.1032 68.1907 72.6782 68.2545L73.635 68.3884C73.9894 68.4325 74.2983 68.4767 74.5934 68.5405C74.6686 68.5527 74.7425 68.572 74.814 68.5984C75.1474 68.7187 75.4197 68.966 75.5716 69.2863C75.7235 69.6066 75.7426 69.9739 75.6248 70.3082C75.5061 70.6125 75.389 70.9259 75.2703 71.221C75.1517 71.5161 75.0345 71.8112 74.9022 72.1048C74.4236 73.189 73.8873 74.2467 73.2957 75.2736C72.7014 76.3078 72.0472 77.3065 71.3364 78.2644C71.1153 78.5575 70.9241 78.808 70.7629 79.0159C70.5119 79.3201 70.3202 79.5757 70.1544 79.7522C70.1025 79.818 70.0427 79.8773 69.9764 79.9286C69.8426 80.0414 69.6877 80.1263 69.5207 80.1785C69.3537 80.2308 69.1781 80.2492 69.0039 80.2328C68.8297 80.2163 68.6605 80.1654 68.5062 80.0829C68.3519 80.0003 68.2157 79.8879 68.1053 79.7522C67.8847 79.5012 67.693 79.2654 67.4968 79.0159L67.4998 79.0098Z" fill="#38CEC9"/>
</g>
<path d="M106.99 71.152C107.932 69.6858 109.591 68.9527 111.964 68.9527V72.0684C111.685 72.016 111.432 71.9898 111.205 71.9898C109.931 71.9898 108.936 72.3651 108.22 73.1156C107.505 73.8487 107.147 74.9135 107.147 76.3098V83.0909H103.874V69.1098H106.99V71.152Z" fill="#1B1E59"/>
<path d="M127.756 76.1789C127.756 76.4058 127.739 76.7287 127.704 77.1476H116.734C116.926 78.1775 117.423 78.9978 118.226 79.6087C119.046 80.2022 120.059 80.4989 121.263 80.4989C122.799 80.4989 124.065 79.9927 125.059 78.9804L126.814 80.9964C126.185 81.7469 125.391 82.3142 124.431 82.6982C123.471 83.0822 122.389 83.2742 121.185 83.2742C119.649 83.2742 118.296 82.9687 117.126 82.3578C115.957 81.7469 115.049 80.9004 114.403 79.8182C113.775 78.7185 113.461 77.4793 113.461 76.1004C113.461 74.7389 113.766 73.5171 114.377 72.4349C115.006 71.3353 115.87 70.48 116.969 69.8691C118.069 69.2582 119.308 68.9527 120.687 68.9527C122.049 68.9527 123.262 69.2582 124.326 69.8691C125.409 70.4625 126.246 71.3091 126.84 72.4087C127.451 73.4909 127.756 74.7476 127.756 76.1789ZM120.687 71.5709C119.64 71.5709 118.75 71.8851 118.017 72.5135C117.301 73.1244 116.865 73.9447 116.707 74.9745H124.641C124.501 73.9622 124.073 73.1418 123.358 72.5135C122.642 71.8851 121.752 71.5709 120.687 71.5709Z" fill="#1B1E59"/>
<path d="M135.22 83.2742C134.085 83.2742 132.977 83.1258 131.895 82.8291C130.813 82.5324 129.949 82.1571 129.303 81.7033L130.559 79.216C131.188 79.6349 131.938 79.9753 132.811 80.2371C133.701 80.4815 134.574 80.6036 135.429 80.6036C137.384 80.6036 138.362 80.0887 138.362 79.0589C138.362 78.5702 138.109 78.2298 137.602 78.0378C137.114 77.8458 136.319 77.6625 135.22 77.488C134.068 77.3135 133.125 77.1127 132.392 76.8858C131.677 76.6589 131.048 76.2662 130.507 75.7076C129.983 75.1316 129.722 74.3375 129.722 73.3251C129.722 71.9985 130.271 70.9425 131.371 70.1571C132.488 69.3542 133.989 68.9527 135.874 68.9527C136.834 68.9527 137.794 69.0662 138.754 69.2931C139.714 69.5025 140.5 69.7905 141.111 70.1571L139.854 72.6444C138.667 71.9462 137.332 71.5971 135.848 71.5971C134.888 71.5971 134.155 71.7455 133.649 72.0422C133.16 72.3215 132.916 72.6967 132.916 73.168C132.916 73.6916 133.178 74.0669 133.701 74.2938C134.242 74.5033 135.071 74.704 136.189 74.896C137.306 75.0705 138.222 75.2713 138.938 75.4982C139.653 75.7251 140.264 76.1091 140.77 76.6502C141.294 77.1913 141.556 77.9593 141.556 78.9542C141.556 80.2633 140.989 81.3105 139.854 82.096C138.719 82.8815 137.175 83.2742 135.22 83.2742Z" fill="#1B1E59"/>
<path d="M157.518 76.1789C157.518 76.4058 157.5 76.7287 157.465 77.1476H146.495C146.687 78.1775 147.184 78.9978 147.987 79.6087C148.808 80.2022 149.82 80.4989 151.024 80.4989C152.56 80.4989 153.826 79.9927 154.821 78.9804L156.575 80.9964C155.947 81.7469 155.152 82.3142 154.192 82.6982C153.232 83.0822 152.15 83.2742 150.946 83.2742C149.41 83.2742 148.057 82.9687 146.888 82.3578C145.718 81.7469 144.811 80.9004 144.165 79.8182C143.536 78.7185 143.222 77.4793 143.222 76.1004C143.222 74.7389 143.528 73.5171 144.139 72.4349C144.767 71.3353 145.631 70.48 146.731 69.8691C147.83 69.2582 149.07 68.9527 150.448 68.9527C151.81 68.9527 153.023 69.2582 154.088 69.8691C155.17 70.4625 156.008 71.3091 156.601 72.4087C157.212 73.4909 157.518 74.7476 157.518 76.1789ZM150.448 71.5709C149.401 71.5709 148.511 71.8851 147.778 72.5135C147.062 73.1244 146.626 73.9447 146.469 74.9745H154.402C154.262 73.9622 153.835 73.1418 153.119 72.5135C152.403 71.8851 151.513 71.5709 150.448 71.5709Z" fill="#1B1E59"/>
<path d="M167.076 83.2742C165.627 83.2742 164.327 82.9687 163.175 82.3578C162.023 81.7469 161.124 80.9004 160.478 79.8182C159.832 78.7185 159.509 77.4793 159.509 76.1004C159.509 74.7215 159.832 73.4909 160.478 72.4087C161.124 71.3265 162.014 70.48 163.148 69.8691C164.3 69.2582 165.61 68.9527 167.076 68.9527C168.455 68.9527 169.659 69.232 170.689 69.7905C171.736 70.3491 172.522 71.152 173.045 72.1993L170.532 73.6655C170.13 73.0196 169.624 72.5396 169.013 72.2255C168.42 71.8938 167.765 71.728 167.05 71.728C165.828 71.728 164.815 72.1295 164.012 72.9324C163.21 73.7178 162.808 74.7738 162.808 76.1004C162.808 77.4269 163.201 78.4916 163.986 79.2945C164.789 80.08 165.81 80.4727 167.05 80.4727C167.765 80.4727 168.42 80.3156 169.013 80.0015C169.624 79.6698 170.13 79.1811 170.532 78.5353L173.045 80.0015C172.504 81.0487 171.71 81.8604 170.663 82.4364C169.633 82.9949 168.437 83.2742 167.076 83.2742Z" fill="#1B1E59"/>
<path d="M189.41 69.1098V83.0909H186.295V81.3105C185.771 81.9389 185.116 82.4276 184.331 82.7767C183.546 83.1084 182.699 83.2742 181.791 83.2742C179.924 83.2742 178.449 82.7593 177.367 81.7295C176.302 80.6822 175.77 79.1375 175.77 77.0953V69.1098H179.042V76.6502C179.042 77.9069 179.322 78.8495 179.88 79.4778C180.456 80.0887 181.268 80.3942 182.315 80.3942C183.484 80.3942 184.41 80.0364 185.09 79.3207C185.788 78.5876 186.138 77.5404 186.138 76.1789V69.1098H189.41Z" fill="#1B1E59"/>
<path d="M196.811 71.152C197.753 69.6858 199.412 68.9527 201.785 68.9527V72.0684C201.506 72.016 201.253 71.9898 201.026 71.9898C199.752 71.9898 198.757 72.3651 198.041 73.1156C197.326 73.8487 196.968 74.9135 196.968 76.3098V83.0909H193.695V69.1098H196.811V71.152Z" fill="#1B1E59"/>
<path d="M212.312 68.9527C213.673 68.9527 214.886 69.2495 215.951 69.8429C217.033 70.4364 217.88 71.2742 218.49 72.3564C219.101 73.4385 219.407 74.6865 219.407 76.1004C219.407 77.5142 219.101 78.7709 218.49 79.8705C217.88 80.9527 217.033 81.7906 215.951 82.384C214.886 82.9775 213.673 83.2742 212.312 83.2742C211.352 83.2742 210.47 83.1084 209.667 82.7767C208.882 82.4451 208.218 81.9476 207.677 81.2844V83.0909H204.562V63.664H207.834V70.8116C208.393 70.2007 209.048 69.7382 209.798 69.424C210.566 69.1098 211.404 68.9527 212.312 68.9527ZM211.945 80.4727C213.149 80.4727 214.136 80.0713 214.904 79.2684C215.689 78.4655 216.082 77.4095 216.082 76.1004C216.082 74.7913 215.689 73.7353 214.904 72.9324C214.136 72.1295 213.149 71.728 211.945 71.728C211.16 71.728 210.453 71.9113 209.824 72.2778C209.196 72.6269 208.699 73.1331 208.332 73.7964C207.965 74.4596 207.782 75.2276 207.782 76.1004C207.782 76.9731 207.965 77.7411 208.332 78.4044C208.699 79.0676 209.196 79.5825 209.824 79.9491C210.453 80.2982 211.16 80.4727 211.945 80.4727Z" fill="#1B1E59"/>
<defs>
<filter id="filter0_d_628_22200" x="0" y="0" width="265" height="150" filterUnits="userSpaceOnUse" color-interpolation-filters="sRGB">
<feFlood flood-opacity="0" result="BackgroundImageFix"/>
<feColorMatrix in="SourceAlpha" type="matrix" values="0 0 0 0 0 0 0 0 0 0 0 0 0 0 0 0 0 0 127 0" result="hardAlpha"/>
<feOffset dy="1"/>
<feGaussianBlur stdDeviation="1"/>
<feColorMatrix type="matrix" values="0 0 0 0 0.333333 0 0 0 0 0.411765 0 0 0 0 0.529412 0 0 0 0.1 0"/>
<feBlend mode="normal" in2="BackgroundImageFix" result="effect1_dropShadow_628_22200"/>
<feBlend mode="normal" in="SourceGraphic" in2="effect1_dropShadow_628_22200" result="shape"/>
</filter>
<radialGradient id="paint0_radial_628_22200" cx="0" cy="0" r="1" gradientUnits="userSpaceOnUse" gradientTransform="translate(-14 49) rotate(90) scale(184 720)">
<stop stop-color="white" stop-opacity="0"/>
<stop offset="1" stop-color="white"/>
</radialGradient>
<clipPath id="clip0_628_22200">
<rect width="1440" height="368" fill="white" transform="translate(-734 -135)"/>
</clipPath>
<clipPath id="clip1_628_22200">
<rect width="48" height="43.6364" fill="white" transform="translate(45 52)"/>
</clipPath>
</defs>
</svg>
