<svg width="265" height="150" viewBox="0 0 265 150" fill="none" xmlns="http://www.w3.org/2000/svg">
<rect width="265" height="150" fill="#E5E5E5"/>
<rect width="1440" height="4373" transform="translate(-441 -1340)" fill="white"/>
<rect width="1440" height="370" transform="translate(-441 -135)" fill="white"/>
<g clip-path="url(#clip0_628_22200)">
<rect width="1440" height="368" transform="translate(-441 -135)" fill="#F7F8F9"/>
<g opacity="0.4">
<rect width="1440" height="1320" transform="translate(-441 -655)" fill="white"/>
<line x1="1023" y1="17.5" x2="-465" y2="17.5" stroke="#EEF0F3"/>
<line x1="1023" y1="41.5" x2="-465" y2="41.5" stroke="#EEF0F3"/>
<line x1="1023" y1="65.5" x2="-465" y2="65.5" stroke="#EEF0F3"/>
<line x1="1023" y1="89.5" x2="-465" y2="89.5" stroke="#EEF0F3"/>
<line x1="1023" y1="113.5" x2="-465" y2="113.5" stroke="#EEF0F3"/>
<line x1="1023" y1="137.5" x2="-465" y2="137.5" stroke="#EEF0F3"/>
<line x1="15.5" y1="-7" x2="15.5" y2="713" stroke="#EEF0F3"/>
<line x1="39.5" y1="-7" x2="39.5" y2="713" stroke="#EEF0F3"/>
<line x1="63.5" y1="-7" x2="63.5" y2="713" stroke="#EEF0F3"/>
<line x1="87.5" y1="-7" x2="87.5" y2="713" stroke="#EEF0F3"/>
<line x1="111.5" y1="-7" x2="111.5" y2="713" stroke="#EEF0F3"/>
<line x1="135.5" y1="-7" x2="135.5" y2="713" stroke="#EEF0F3"/>
<line x1="159.5" y1="-7" x2="159.5" y2="713" stroke="#EEF0F3"/>
<line x1="183.5" y1="-7" x2="183.5" y2="713" stroke="#EEF0F3"/>
<line x1="207.5" y1="-7" x2="207.5" y2="713" stroke="#EEF0F3"/>
<line x1="231.5" y1="-7" x2="231.5" y2="713" stroke="#EEF0F3"/>
<line x1="255.5" y1="-7" x2="255.5" y2="713" stroke="#EEF0F3"/>
<line x1="15.5" y1="-703" x2="15.5" y2="17" stroke="#EEF0F3"/>
<line x1="39.5" y1="-703" x2="39.5" y2="17" stroke="#EEF0F3"/>
<line x1="63.5" y1="-703" x2="63.5" y2="17" stroke="#EEF0F3"/>
<line x1="87.5" y1="-703" x2="87.5" y2="17" stroke="#EEF0F3"/>
<line x1="111.5" y1="-703" x2="111.5" y2="17" stroke="#EEF0F3"/>
<line x1="135.5" y1="-703" x2="135.5" y2="17" stroke="#EEF0F3"/>
<line x1="159.5" y1="-703" x2="159.5" y2="17" stroke="#EEF0F3"/>
<line x1="183.5" y1="-703" x2="183.5" y2="17" stroke="#EEF0F3"/>
<line x1="207.5" y1="-703" x2="207.5" y2="17" stroke="#EEF0F3"/>
<line x1="231.5" y1="-703" x2="231.5" y2="17" stroke="#EEF0F3"/>
<line x1="255.5" y1="-703" x2="255.5" y2="17" stroke="#EEF0F3"/>
</g>
<rect x="-441" y="-135" width="1440" height="368" fill="url(#paint0_radial_628_22200)"/>
</g>
<g filter="url(#filter0_d_628_22200)">
<rect x="2" y="1" width="261" height="146" rx="6" fill="#F7F8F9"/>
</g>
<path d="M107.481 66.5484C107.481 74.4029 115.925 75.4633 115.925 81.1185C115.925 83.0822 115.061 83.7891 113.686 83.7891C112.312 83.7891 111.448 83.0822 111.448 81.1185V79.1549H107.364V80.8436C107.364 85.2422 109.563 87.7556 113.804 87.7556C118.046 87.7556 120.245 85.2422 120.245 80.8436C120.245 72.9891 111.801 71.9287 111.801 66.2734C111.801 64.3098 112.587 63.5636 113.961 63.5636C115.336 63.5636 116.121 64.3098 116.121 66.2734V67.4124H120.206V66.5484C120.206 62.1498 118.046 59.6364 113.844 59.6364C109.641 59.6364 107.481 62.1498 107.481 66.5484Z" fill="#15003E"/>
<path d="M126.497 87.4414H130.817V78.3302L136.276 59.9505H132.152L128.853 72.4785L125.554 59.9505H121.038L126.497 78.3302V87.4414Z" fill="#15003E"/>
<path d="M143.992 59.9505H137.983V87.4414H141.754V68.0014L144.974 87.4414H149.058L152.043 67.7265V87.4414H156.127V59.9505H150.119L147.173 79.4691L143.992 59.9505Z" fill="#15003E"/>
<path d="M158.013 63.8778H162.529V87.4414H166.849V63.8778H171.366V59.9505H158.013V63.8778Z" fill="#15003E"/>
<path d="M186.7 87.4414C186.268 86.4204 186.228 85.4385 186.228 84.1033V79.8618C186.228 76.9949 185.521 74.9134 183.361 74.0102C185.286 73.1069 186.189 71.2611 186.189 68.4334V66.2734C186.189 62.032 184.265 59.9505 179.788 59.9505H173.268V87.4414H177.588V76.2487H179.081C181.044 76.2487 181.908 77.1913 181.908 79.744V84.064C181.908 86.3025 182.065 86.7345 182.301 87.4414H186.7ZM179.67 63.8778C181.201 63.8778 181.869 64.7418 181.869 66.7054V69.4153C181.869 71.6145 180.887 72.3214 179.277 72.3214H177.588V63.8778H179.67Z" fill="#15003E"/>
<path d="M189.07 87.4414H193.39V59.9505H189.07V87.4414Z" fill="#15003E"/>
<path d="M204.992 77.1913V81.1185C204.992 83.0822 204.128 83.7891 202.753 83.7891C201.379 83.7891 200.515 83.0822 200.515 81.1185V66.2734C200.515 64.3098 201.379 63.5636 202.753 63.5636C204.128 63.5636 204.992 64.3098 204.992 66.2734V69.2189H209.076V66.5484C209.076 62.1498 206.877 59.6364 202.635 59.6364C198.394 59.6364 196.195 62.1498 196.195 66.5484V80.8436C196.195 85.2422 198.394 87.7556 202.635 87.7556C206.877 87.7556 209.076 85.2422 209.076 80.8436V77.1913H204.992Z" fill="#15003E"/>
<g clip-path="url(#clip1_628_22200)">
<path fill-rule="evenodd" clip-rule="evenodd" d="M69.8435 65.835L67.4829 69.9162L65.2367 66.02L67.5856 61.9388H83.9926L87.4763 55.8963H64.099L59.4923 63.8869C62.948 69.857 66.3985 75.827 69.8435 81.7971H76.8109C75.061 78.768 73.312 75.7395 71.564 72.7114L71.0796 71.8731H87.0476L93.9151 83.7643L87.0476 95.6365H61.8529L55.0558 83.6498L58.4691 77.7218L60.7298 81.6166L59.5069 83.7496L64.1137 91.7402H84.7883L89.4097 83.7496L84.803 75.759H77.8356C79.3134 78.333 80.7922 80.9065 82.272 83.4795L82.4394 83.7452L81.3163 85.6933H67.5974C63.4447 78.5126 59.2975 71.3372 55.1556 64.1673L55 63.8825L61.8529 51.9913H94.2411L86.2563 65.835H69.8435Z" fill="#7F46F0"/>
</g>
<defs>
<filter id="filter0_d_628_22200" x="0" y="0" width="265" height="150" filterUnits="userSpaceOnUse" color-interpolation-filters="sRGB">
<feFlood flood-opacity="0" result="BackgroundImageFix"/>
<feColorMatrix in="SourceAlpha" type="matrix" values="0 0 0 0 0 0 0 0 0 0 0 0 0 0 0 0 0 0 127 0" result="hardAlpha"/>
<feOffset dy="1"/>
<feGaussianBlur stdDeviation="1"/>
<feColorMatrix type="matrix" values="0 0 0 0 0.333333 0 0 0 0 0.411765 0 0 0 0 0.529412 0 0 0 0.1 0"/>
<feBlend mode="normal" in2="BackgroundImageFix" result="effect1_dropShadow_628_22200"/>
<feBlend mode="normal" in="SourceGraphic" in2="effect1_dropShadow_628_22200" result="shape"/>
</filter>
<radialGradient id="paint0_radial_628_22200" cx="0" cy="0" r="1" gradientUnits="userSpaceOnUse" gradientTransform="translate(279 49) rotate(90) scale(184 720)">
<stop stop-color="white" stop-opacity="0"/>
<stop offset="1" stop-color="white"/>
</radialGradient>
<clipPath id="clip0_628_22200">
<rect width="1440" height="368" fill="white" transform="translate(-441 -135)"/>
</clipPath>
<clipPath id="clip1_628_22200">
<rect width="39.2425" height="43.6364" fill="white" transform="translate(55 52)"/>
</clipPath>
</defs>
</svg>
