<svg width="265" height="150" viewBox="0 0 265 150" fill="none" xmlns="http://www.w3.org/2000/svg">
<rect width="265" height="150" fill="#E5E5E5"/>
<rect width="1440" height="4373" transform="translate(-1027 -1340)" fill="white"/>
<rect width="1440" height="370" transform="translate(-1027 -135)" fill="white"/>
<g clip-path="url(#clip0_628_22200)">
<rect width="1440" height="368" transform="translate(-1027 -135)" fill="#F7F8F9"/>
<g opacity="0.4">
<rect width="1440" height="1320" transform="translate(-1027 -655)" fill="white"/>
<line x1="437" y1="17.5" x2="-1051" y2="17.5" stroke="#EEF0F3"/>
<line x1="437" y1="41.5" x2="-1051" y2="41.5" stroke="#EEF0F3"/>
<line x1="437" y1="65.5" x2="-1051" y2="65.5" stroke="#EEF0F3"/>
<line x1="437" y1="89.5" x2="-1051" y2="89.5" stroke="#EEF0F3"/>
<line x1="437" y1="113.5" x2="-1051" y2="113.5" stroke="#EEF0F3"/>
<line x1="437" y1="137.5" x2="-1051" y2="137.5" stroke="#EEF0F3"/>
<line x1="5.5" y1="-7" x2="5.49997" y2="713" stroke="#EEF0F3"/>
<line x1="29.5" y1="-7" x2="29.5" y2="713" stroke="#EEF0F3"/>
<line x1="53.5" y1="-7" x2="53.5" y2="713" stroke="#EEF0F3"/>
<line x1="77.5" y1="-7" x2="77.5" y2="713" stroke="#EEF0F3"/>
<line x1="101.5" y1="-7" x2="101.5" y2="713" stroke="#EEF0F3"/>
<line x1="125.5" y1="-7" x2="125.5" y2="713" stroke="#EEF0F3"/>
<line x1="149.5" y1="-7" x2="149.5" y2="713" stroke="#EEF0F3"/>
<line x1="173.5" y1="-7" x2="173.5" y2="713" stroke="#EEF0F3"/>
<line x1="197.5" y1="-7" x2="197.5" y2="713" stroke="#EEF0F3"/>
<line x1="221.5" y1="-7" x2="221.5" y2="713" stroke="#EEF0F3"/>
<line x1="245.5" y1="-7" x2="245.5" y2="713" stroke="#EEF0F3"/>
<line x1="5.5" y1="-703" x2="5.49997" y2="17" stroke="#EEF0F3"/>
<line x1="29.5" y1="-703" x2="29.5" y2="17" stroke="#EEF0F3"/>
<line x1="53.5" y1="-703" x2="53.5" y2="17" stroke="#EEF0F3"/>
<line x1="77.5" y1="-703" x2="77.5" y2="17" stroke="#EEF0F3"/>
<line x1="101.5" y1="-703" x2="101.5" y2="17" stroke="#EEF0F3"/>
<line x1="125.5" y1="-703" x2="125.5" y2="17" stroke="#EEF0F3"/>
<line x1="149.5" y1="-703" x2="149.5" y2="17" stroke="#EEF0F3"/>
<line x1="173.5" y1="-703" x2="173.5" y2="17" stroke="#EEF0F3"/>
<line x1="197.5" y1="-703" x2="197.5" y2="17" stroke="#EEF0F3"/>
<line x1="221.5" y1="-703" x2="221.5" y2="17" stroke="#EEF0F3"/>
<line x1="245.5" y1="-703" x2="245.5" y2="17" stroke="#EEF0F3"/>
</g>
<rect x="-1027" y="-135" width="1440" height="368" fill="url(#paint0_radial_628_22200)"/>
</g>
<g filter="url(#filter0_d_628_22200)">
<rect x="2" y="1" width="261" height="146" rx="6" fill="#F7F8F9"/>
</g>
<g clip-path="url(#clip1_628_22200)">
<path fill-rule="evenodd" clip-rule="evenodd" d="M67.7092 97.0853C72.9041 96.4788 77.7423 94.1369 81.4406 90.4386C85.1389 86.7403 87.4807 81.9021 88.0872 76.7073H79.3565C78.8058 79.5903 77.4005 82.2411 75.3233 84.3149C73.2462 86.3887 70.5932 87.7896 67.7092 88.3356V97.0853Z" fill="#F7936F"/>
<path fill-rule="evenodd" clip-rule="evenodd" d="M75.4646 53.2461L75.5195 53.2101C81.1689 49.964 85.7369 49.0095 87.8637 51.1382C93.8805 57.1531 76.9133 75.8626 71.887 80.8889C68.8643 83.9205 65.661 86.7665 62.2946 89.4113V97.0796C59.5881 96.7723 56.9584 95.9834 54.5298 94.7501L54.4748 94.7861C48.8254 98.0322 44.2594 98.9867 42.1307 96.8693C39.2141 93.9528 42.6268 87.239 44.2404 84.4683C43.0148 82.0366 42.2263 79.4083 41.911 76.7035H50.6606C51.0432 78.7342 51.8525 80.6607 53.035 82.3554C54.2175 84.0501 55.7462 85.4746 57.5202 86.5345C56.5108 87.2675 55.4843 87.9644 54.4199 88.6178C52.8613 89.6083 51.2477 90.5438 49.5773 91.3866C48.27 90.2289 47.1008 88.9243 46.0926 87.4985C44.3313 90.8923 43.7443 93.3865 44.6798 94.3164C48.6967 98.2935 66.7641 81.6976 69.7356 78.7261C72.8992 75.5667 75.8583 72.2091 78.5951 68.6735C77.6933 66.3688 76.2202 64.3313 74.3142 62.7527C72.4082 61.174 70.132 60.1061 67.6997 59.6492V50.8996C70.4067 51.2041 73.0369 51.9932 75.4646 53.229V53.2461ZM83.9017 60.492C85.663 57.0982 86.2501 54.604 85.3145 53.6741C84.3789 52.7442 81.9056 53.3446 78.5099 55.1059C80.5974 56.5873 82.4202 58.4102 83.9017 60.4977V60.492Z" fill="#F16063"/>
<path fill-rule="evenodd" clip-rule="evenodd" d="M62.2984 50.9167C57.1034 51.5236 52.2652 53.8659 48.567 57.5645C44.8687 61.2631 42.5268 66.1015 41.9204 71.2966H50.6701C51.2133 68.4132 52.6137 65.7607 54.6883 63.6858C56.7628 61.6109 59.4151 60.21 62.2984 59.6663V50.9167Z" fill="#F7936F"/>
</g>
<path d="M128.614 79.5568C128.614 80.5682 128.42 81.5228 128.034 82.4205C127.659 83.3068 127.136 84.0853 126.466 84.7557C125.807 85.4148 125.028 85.9375 124.131 86.3239C123.244 86.6989 122.295 86.8864 121.284 86.8864C120.375 86.8864 119.5 86.7273 118.659 86.4091C117.83 86.0909 117.08 85.625 116.409 85.0114C115.739 85.625 114.983 86.0909 114.142 86.4091C113.301 86.7273 112.426 86.8864 111.517 86.8864C110.506 86.8864 109.551 86.6989 108.653 86.3239C107.767 85.9375 106.989 85.4148 106.318 84.7557C105.659 84.0853 105.136 83.3068 104.75 82.4205C104.375 81.5228 104.188 80.5682 104.188 79.5568V62.1023H109.08V79.5568C109.08 79.8978 109.142 80.2216 109.267 80.5284C109.392 80.8239 109.562 81.0853 109.778 81.3125C110.006 81.5284 110.267 81.6989 110.562 81.8239C110.858 81.9489 111.176 82.0114 111.517 82.0114C111.858 82.0114 112.176 81.9489 112.472 81.8239C112.767 81.6989 113.023 81.5284 113.239 81.3125C113.466 81.0853 113.642 80.8239 113.767 80.5284C113.892 80.2216 113.955 79.8978 113.955 79.5568V62.1023H118.847V79.5568C118.847 79.8978 118.909 80.2216 119.034 80.5284C119.159 80.8239 119.33 81.0853 119.545 81.3125C119.773 81.5284 120.034 81.6989 120.33 81.8239C120.625 81.9489 120.943 82.0114 121.284 82.0114C121.625 82.0114 121.943 81.9489 122.239 81.8239C122.534 81.6989 122.79 81.5284 123.006 81.3125C123.233 81.0853 123.409 80.8239 123.534 80.5284C123.67 80.2216 123.739 79.8978 123.739 79.5568V62.1023H128.614V79.5568Z" fill="#16192C"/>
<path d="M137.989 63.3296C137.989 63.7614 137.903 64.1648 137.733 64.5398C137.574 64.9148 137.352 65.2443 137.068 65.5284C136.784 65.8012 136.449 66.0227 136.062 66.1932C135.688 66.3523 135.284 66.4318 134.852 66.4318C134.42 66.4318 134.011 66.3523 133.625 66.1932C133.25 66.0227 132.92 65.8012 132.636 65.5284C132.364 65.2443 132.142 64.9148 131.972 64.5398C131.812 64.1648 131.733 63.7614 131.733 63.3296C131.733 62.9091 131.812 62.5114 131.972 62.1364C132.142 61.75 132.364 61.4205 132.636 61.1477C132.92 60.8637 133.25 60.6421 133.625 60.483C134.011 60.3125 134.42 60.2273 134.852 60.2273C135.284 60.2273 135.688 60.3125 136.062 60.483C136.449 60.6421 136.784 60.8637 137.068 61.1477C137.352 61.4205 137.574 61.75 137.733 62.1364C137.903 62.5114 137.989 62.9091 137.989 63.3296ZM137.188 86.5455H132.5V68.2898H137.188V86.5455Z" fill="#16192C"/>
<path d="M150.773 86.5455H140.136V81.9091H150.773C151.091 81.9091 151.364 81.7955 151.591 81.5682C151.818 81.3409 151.932 81.0682 151.932 80.75C151.932 80.4205 151.818 80.2046 151.591 80.1023C151.364 80 151.091 79.9489 150.773 79.9489H145.932C145.125 79.9489 144.369 79.7955 143.665 79.4887C142.96 79.1818 142.347 78.7671 141.824 78.2443C141.301 77.7103 140.886 77.0909 140.58 76.3864C140.284 75.6818 140.136 74.9262 140.136 74.1193C140.136 73.3125 140.284 72.5568 140.58 71.8523C140.886 71.1477 141.301 70.5341 141.824 70.0114C142.347 69.4887 142.96 69.0796 143.665 68.7841C144.369 68.4773 145.125 68.3239 145.932 68.3239H155.358V72.9602H145.932C145.614 72.9602 145.341 73.0739 145.114 73.3012C144.886 73.5284 144.773 73.8012 144.773 74.1193C144.773 74.4489 144.886 74.733 145.114 74.9716C145.341 75.1989 145.614 75.3125 145.932 75.3125H150.773C151.568 75.3125 152.318 75.4489 153.023 75.7216C153.727 75.983 154.341 76.3523 154.864 76.8296C155.386 77.3068 155.801 77.8807 156.108 78.5512C156.415 79.2216 156.568 79.9546 156.568 80.75C156.568 81.5568 156.415 82.3125 156.108 83.0171C155.801 83.7103 155.386 84.3239 154.864 84.858C154.341 85.3807 153.727 85.7955 153.023 86.1023C152.318 86.3978 151.568 86.5455 150.773 86.5455Z" fill="#16192C"/>
<path d="M163.71 86.5455H159.057V61.0284H163.71V69.0909C164.267 68.6705 164.841 68.375 165.432 68.2046C166.023 68.0227 166.625 67.9318 167.239 67.9318C168.364 67.9318 169.42 68.1477 170.409 68.5796C171.398 69 172.256 69.5852 172.983 70.3352C173.722 71.0739 174.301 71.9432 174.722 72.9432C175.153 73.9318 175.369 74.9887 175.369 76.1137V86.5455H170.682V76.1137H170.716C170.716 75.6364 170.625 75.1875 170.443 74.7671C170.261 74.3352 170.011 73.9602 169.693 73.6421C169.375 73.3239 169.006 73.0739 168.585 72.8921C168.165 72.7102 167.716 72.6193 167.239 72.6193C166.75 72.6193 166.29 72.7102 165.858 72.8921C165.426 73.0739 165.051 73.3239 164.733 73.6421C164.415 73.9602 164.165 74.3352 163.983 74.7671C163.801 75.1875 163.71 75.6364 163.71 76.1137V86.5455Z" fill="#16192C"/>
<path d="M185.955 82.0796C186.136 82.1364 186.318 82.1762 186.5 82.1989C186.682 82.2103 186.864 82.2159 187.045 82.2159C187.5 82.2159 187.938 82.1534 188.358 82.0284C188.778 81.9034 189.17 81.7273 189.534 81.5C189.909 81.2614 190.239 80.9773 190.523 80.6478C190.818 80.3068 191.057 79.9318 191.239 79.5228L194.648 82.9489C194.216 83.5625 193.716 84.1137 193.148 84.6023C192.591 85.0909 191.983 85.5057 191.324 85.8466C190.676 86.1875 189.989 86.4432 189.261 86.6137C188.545 86.7955 187.807 86.8864 187.045 86.8864C185.761 86.8864 184.551 86.6478 183.415 86.1705C182.29 85.6932 181.301 85.0284 180.449 84.1762C179.608 83.3239 178.943 82.3125 178.455 81.1421C177.966 79.9603 177.722 78.6648 177.722 77.2557C177.722 75.8125 177.966 74.4943 178.455 73.3012C178.943 72.108 179.608 71.0909 180.449 70.25C181.301 69.4091 182.29 68.7557 183.415 68.2898C184.551 67.8239 185.761 67.5909 187.045 67.5909C187.807 67.5909 188.551 67.6818 189.278 67.8637C190.006 68.0455 190.693 68.3068 191.341 68.6477C192 68.9887 192.614 69.4091 193.182 69.9091C193.75 70.3977 194.25 70.9489 194.682 71.5625L185.955 82.0796ZM188.341 72.483C188.125 72.4034 187.909 72.3523 187.693 72.3296C187.489 72.3068 187.273 72.2955 187.045 72.2955C186.409 72.2955 185.807 72.4148 185.239 72.6534C184.682 72.8807 184.193 73.2102 183.773 73.6421C183.364 74.0739 183.04 74.5966 182.801 75.2102C182.562 75.8125 182.443 76.4943 182.443 77.2557C182.443 77.4262 182.449 77.6193 182.46 77.8353C182.483 78.0512 182.511 78.2728 182.545 78.5C182.591 78.7159 182.642 78.9262 182.699 79.1307C182.756 79.3353 182.83 79.5171 182.92 79.6762L188.341 72.483Z" fill="#16192C"/>
<path d="M201.722 86.5455H197.034V61.0284H201.722V86.5455Z" fill="#16192C"/>
<path d="M209.972 93.5H205.284V68.2898H206.409L208.267 70.4887C208.688 70.0909 209.148 69.7159 209.648 69.3637C210.148 69.0114 210.665 68.7102 211.199 68.4602C211.744 68.1989 212.307 67.9943 212.886 67.8466C213.466 67.6989 214.051 67.625 214.642 67.625C215.926 67.625 217.131 67.858 218.256 68.3239C219.392 68.7784 220.381 69.4262 221.222 70.2671C222.074 71.108 222.744 72.125 223.233 73.3182C223.722 74.5 223.966 75.8125 223.966 77.2557C223.966 78.7557 223.722 80.108 223.233 81.3125C222.744 82.5057 222.074 83.5228 221.222 84.3637C220.381 85.1932 219.392 85.8296 218.256 86.2728C217.131 86.7159 215.926 86.9375 214.642 86.9375C214.233 86.9375 213.824 86.8921 213.415 86.8012C213.017 86.7103 212.619 86.5909 212.222 86.4432C211.835 86.2841 211.449 86.108 211.062 85.9148C210.688 85.7216 210.324 85.5228 209.972 85.3182V93.5ZM219.295 77.2557C219.295 76.483 219.17 75.7898 218.92 75.1762C218.682 74.5625 218.352 74.0455 217.932 73.625C217.511 73.1932 217.017 72.8637 216.449 72.6364C215.881 72.4091 215.278 72.2955 214.642 72.2955C214.006 72.2955 213.403 72.4091 212.835 72.6364C212.278 72.8637 211.79 73.1932 211.369 73.625C210.949 74.0455 210.614 74.5625 210.364 75.1762C210.125 75.7898 210.006 76.483 210.006 77.2557C210.006 77.9943 210.125 78.6705 210.364 79.2841C210.614 79.8978 210.949 80.4205 211.369 80.8523C211.79 81.2841 212.278 81.6193 212.835 81.858C213.403 82.0966 214.006 82.2159 214.642 82.2159C215.278 82.2159 215.881 82.0966 216.449 81.858C217.017 81.6193 217.511 81.2841 217.932 80.8523C218.352 80.4205 218.682 79.8978 218.92 79.2841C219.17 78.6705 219.295 77.9943 219.295 77.2557Z" fill="#16192C"/>
<defs>
<filter id="filter0_d_628_22200" x="0" y="0" width="265" height="150" filterUnits="userSpaceOnUse" color-interpolation-filters="sRGB">
<feFlood flood-opacity="0" result="BackgroundImageFix"/>
<feColorMatrix in="SourceAlpha" type="matrix" values="0 0 0 0 0 0 0 0 0 0 0 0 0 0 0 0 0 0 127 0" result="hardAlpha"/>
<feOffset dy="1"/>
<feGaussianBlur stdDeviation="1"/>
<feColorMatrix type="matrix" values="0 0 0 0 0.333333 0 0 0 0 0.411765 0 0 0 0 0.529412 0 0 0 0.1 0"/>
<feBlend mode="normal" in2="BackgroundImageFix" result="effect1_dropShadow_628_22200"/>
<feBlend mode="normal" in="SourceGraphic" in2="effect1_dropShadow_628_22200" result="shape"/>
</filter>
<radialGradient id="paint0_radial_628_22200" cx="0" cy="0" r="1" gradientUnits="userSpaceOnUse" gradientTransform="translate(-307 49) rotate(90) scale(184 720)">
<stop stop-color="white" stop-opacity="0"/>
<stop offset="1" stop-color="white"/>
</radialGradient>
<clipPath id="clip0_628_22200">
<rect width="1440" height="368" fill="white" transform="translate(-1027 -135)"/>
</clipPath>
<clipPath id="clip1_628_22200">
<rect width="48.142" height="48" fill="white" transform="translate(41 50)"/>
</clipPath>
</defs>
</svg>
